# xmcd CD database file
#
# Track frame offsets:
#	150
#	18370
#	38969
#	51946
#	70503
#	81658
#	103456
#	121688
#	138921
#	152365
#	163307
#	177102
#
# Disc length: 2490 seconds
#
# Revision: 0
# Processed by: cddbd v1.4PL0 Copyright (c) Steve Scherf et al.
# Submitted via: CDex 1.40Beta9
#
DISCID=9c09b80c
DTITLE=Kasey Chambers - Captain
DYEAR=2000
DGENRE=Country
TTITLE0=Cry Like A Baby
TTITLE1=The Captain
TTITLE2=This Flower 
TTITLE3=You Got The Car 
TTITLE4=These Pines
TTITLE5=Don't Talk Back 
TTITLE6=Southern Kind Of Life
TTITLE7=Mr. Baylis
TTITLE8=The Hard Way
TTITLE9=Last Hard Bible 
TTITLE10=Don't Go 
TTITLE11=We're All Gonna Die Someday
EXTD=YEAR: 2000 ID3G: 2
EXTT0=
EXTT1=
EXTT2=
EXTT3=
EXTT4=
EXTT5=
EXTT6=
EXTT7=
EXTT8=
EXTT9=
EXTT10=
EXTT11=
PLAYORDER=
